<svg width="64" height="62" viewBox="0 0 64 62" fill="none" xmlns="http://www.w3.org/2000/svg">
<path d="M22.5 57V57C22.5 58.933 20.933 60.5 19 60.5H7C4.23858 60.5 2 58.2614 2 55.5V28C2 25.2386 4.23858 23 7 23H19C20.933 23 22.5 24.567 22.5 26.5V26.5M22.5 57L53.8689 56.5247C54.9082 56.509 55.8932 56.0576 56.5838 55.2807L57.98 53.71C58.7749 52.8158 58.5744 51.4215 57.5599 50.7874V50.7874C56.5061 50.1288 56.3389 48.6611 57.2177 47.7823L58.0062 46.9938C59.1074 45.8926 59.1074 44.1074 58.0062 43.0062L57.9362 42.9362C56.6609 41.6609 56.836 39.5457 58.3036 38.4974L59.4296 37.6932C60.9126 36.6338 60.8769 34.4179 59.3605 33.407V33.407C57.9245 32.4497 57.7999 30.3858 59.1102 29.2627L59.6378 28.8105C61.4087 27.2925 60.9575 24.4406 58.8045 23.5435L58.1576 23.274C57.7235 23.0931 57.2579 23 56.7876 23H36M22.5 57V26.5M34 23H36M22.5 26.5L32.1188 3.89579C32.3661 3.31462 32.7969 2.83036 33.3453 2.517V2.517C34.787 1.69315 36.6248 2.2496 37.3674 3.7348L39.1302 7.26041C39.6897 8.3793 39.8094 9.66726 39.4657 10.8701L36 23M47.5 27.5V29.5M47.5 35V37M47.5 43V45.3571M47.5 50.5V52" stroke="#65A30D" stroke-width="3" stroke-linecap="round" stroke-linejoin="round"/>
<circle cx="15" cy="52" r="2.5" stroke="#65A30D" stroke-width="2"/>
</svg>
