<svg width="62" height="61" viewBox="0 0 62 61" fill="none" xmlns="http://www.w3.org/2000/svg">
<path d="M12.3187 37.1095C12.3187 35.3528 10.9959 24.9984 24.5347 10.0924C26.0853 8.3852 28.6394 8.08655 30.5372 9.39682C33.8359 11.6742 38.238 15.0342 41.4355 18.4449C47.07 24.4549 50.6885 28.3744 52.7252 32.8747C53.1924 33.9068 53.2151 35.0995 52.6157 36.0609C49.8447 40.5045 40.9089 47.1289 21.0126 47.5415C19.7464 47.5678 18.523 47.0812 17.5972 46.217L14.8793 43.6804C13.9535 42.8162 12.7317 42.3151 11.4744 42.4675C9.36683 42.7231 6.5261 43.3871 3.86839 44.7722C1.4945 46.0095 1.42603 49.1174 3.23492 51.0908L9.2573 57.6606C10.9947 59.5559 13.8935 59.8017 15.5329 57.8211C16.8126 56.2752 18.1342 54.3007 19.0379 52.0413" stroke="#65A30D" stroke-width="3" stroke-linecap="round" stroke-linejoin="round"/>
<path d="M29.117 7.99245C28.9926 6.12598 29.2664 2.31839 31.3568 2.01976C33.4472 1.72112 34.7164 4.88167 35.0897 6.49928M32.4767 10.9787C32.4767 9.85884 33.5966 4.63274 41.0624 5.75262M38.4494 15.4582C38.9471 12.7208 40.9131 7.39524 44.7954 7.99245C48.6776 8.58966 48.6527 12.223 48.155 13.9651M45.9152 14.3384C47.9061 13.8406 52.2612 13.4425 53.7544 15.8315C55.2476 18.2206 52.1368 19.8133 50.3948 20.311M55.6209 19.9378C56.8154 22.3268 56.1186 25.4127 55.6209 26.657M53.3811 33.3763C55.1231 33.6252 58.8312 33.451 59.7271 30.7633C60.623 28.0755 56.1186 26.5326 53.7544 26.0971" stroke="#65A30D" stroke-width="3" stroke-linecap="round" stroke-linejoin="round"/>
</svg>
