<svg width="61" height="63" viewBox="0 0 61 63" fill="none" xmlns="http://www.w3.org/2000/svg">
<ellipse cx="43.3004" cy="7.9" rx="16.0143" ry="5.9" stroke="#65A30D" stroke-width="3"/>
<path d="M59.3147 34.8711C59.3147 38.1296 52.1449 40.7711 43.3004 40.7711C34.456 40.7711 27.2861 38.1296 27.2861 34.8711" stroke="#65A30D" stroke-width="3"/>
<path d="M27.2861 7.90039V41.5925C27.2861 45.7942 34.456 49.2004 43.3004 49.2004C52.1449 49.2004 59.3147 45.7942 59.3147 41.5925V7.90039" stroke="#65A30D" stroke-width="3"/>
<path d="M59.3147 26.4424C59.3147 29.7009 52.1449 32.3424 43.3004 32.3424C34.456 32.3424 27.2861 29.7009 27.2861 26.4424" stroke="#65A30D" stroke-width="3"/>
<path d="M59.3147 17.1719C59.3147 20.4304 52.1449 23.0719 43.3004 23.0719C34.456 23.0719 27.2861 20.4304 27.2861 17.1719" stroke="#65A30D" stroke-width="3"/>
<path d="M18.0143 61.0003C26.8587 61.0003 34.0286 58.3587 34.0286 55.1003V28.9717H2V55.1003C2 58.3587 9.16984 61.0003 18.0143 61.0003Z" fill="white" stroke="#65A30D" stroke-width="3"/>
<path d="M34.0286 46.6719C34.0286 49.9304 26.8587 52.5719 18.0143 52.5719C9.16984 52.5719 2 49.9304 2 46.6719" stroke="#65A30D" stroke-width="3"/>
<path d="M34.0286 38.2432C34.0286 41.5016 26.8587 44.1432 18.0143 44.1432C9.16984 44.1432 2 41.5016 2 38.2432" stroke="#65A30D" stroke-width="3"/>
<ellipse cx="18.0143" cy="28.9713" rx="16.0143" ry="5.9" fill="white" stroke="#65A30D" stroke-width="3"/>
</svg>
