<svg width="62" height="43" viewBox="0 0 62 43" fill="none" xmlns="http://www.w3.org/2000/svg">
<path d="M55 33.9H45.1143C42.3528 33.9 40.1143 31.6615 40.1143 28.9V12.3857C40.1143 9.62432 42.3528 7.38574 45.1143 7.38574H50.6955C52.5894 7.38574 54.3207 8.45575 55.1677 10.1497L59.4721 18.7586C59.8192 19.4529 60 20.2184 60 20.9947V28.9C60 31.6615 57.7614 33.9 55 33.9Z" stroke="#65A30D" stroke-width="3" stroke-linecap="round" stroke-linejoin="round"/>
<path d="M2 26.4429V29.3143C2 32.0757 4.23858 34.3143 7 34.3143H35.1143C37.8757 34.3143 40.1143 32.0757 40.1143 29.3143V18.9857M31 2H35.1143C37.8757 2 40.1143 4.23858 40.1143 7V18.9857M2 18.9857H11.9429M2 10.7H18.9857M2 2H23.5429M59.5857 18.9857H40.1143" stroke="#65A30D" stroke-width="3" stroke-linecap="round" stroke-linejoin="round"/>
<circle cx="15.2573" cy="34.3139" r="6.21429" fill="white" stroke="#65A30D" stroke-width="3"/>
<circle cx="47.5717" cy="34.3139" r="6.21429" fill="white" stroke="#65A30D" stroke-width="3"/>
</svg>
