<svg width="59" height="59" viewBox="0 0 59 59" fill="none" xmlns="http://www.w3.org/2000/svg">
<path d="M29.5 0C13.2228 0 0 13.2228 0 29.5C0 45.7772 13.2228 59 29.5 59C45.7772 59 59 45.7772 59 29.5C59 13.2228 45.7772 0 29.5 0ZM29.5 2.56522C44.3909 2.56522 56.4348 14.6091 56.4348 29.5C56.4348 44.3909 44.3909 56.4348 29.5 56.4348C14.6091 56.4348 2.56522 44.3909 2.56522 29.5C2.56522 14.6091 14.6091 2.56522 29.5 2.56522ZM29.48 6.39551C29.1402 6.40082 28.8165 6.5407 28.5798 6.78445C28.3431 7.0282 28.2127 7.35591 28.2174 7.69565V25.8751C27.4677 26.1402 26.8185 26.6311 26.3591 27.2802C25.8997 27.9293 25.6528 28.7048 25.6522 29.5C25.6533 30.0732 25.7826 30.639 26.0304 31.1559L18.3323 38.854C18.2092 38.9722 18.1109 39.1138 18.0432 39.2704C17.9755 39.4271 17.9397 39.5956 17.938 39.7663C17.9363 39.9369 17.9686 40.1062 18.0331 40.2642C18.0976 40.4222 18.193 40.5657 18.3136 40.6864C18.4343 40.807 18.5778 40.9024 18.7358 40.9669C18.8938 41.0314 19.0631 41.0637 19.2337 41.062C19.4044 41.0603 19.5729 41.0245 19.7296 40.9568C19.8862 40.8891 20.0278 40.7908 20.146 40.6677L27.8441 32.9696C28.361 33.2174 28.9268 33.3467 29.5 33.3478C30.5205 33.3478 31.4992 32.9424 32.2208 32.2208C32.9424 31.4992 33.3478 30.5205 33.3478 29.5C33.3467 28.7052 33.0995 27.9303 32.6402 27.2817C32.1809 26.633 31.5319 26.1426 30.7826 25.8776V7.69565C30.785 7.52405 30.7529 7.35373 30.6882 7.19476C30.6235 7.03579 30.5276 6.89142 30.4062 6.77018C30.2847 6.64895 30.1401 6.55332 29.981 6.48897C29.8219 6.42461 29.6516 6.39283 29.48 6.39551Z" fill="#65A30D"/>
</svg>
