<svg width="17" height="8" viewBox="0 0 17 8" fill="none" xmlns="http://www.w3.org/2000/svg">
<g clip-path="url(#clip0_16_54)">
<path d="M15.3808 3.95469C15.5384 3.7956 15.5384 3.53765 15.3808 3.37856L12.8129 0.785948C12.6553 0.626852 12.3999 0.626852 12.2423 0.785948C12.0847 0.945043 12.0847 1.20299 12.2423 1.36208L14.5249 3.66663L12.2423 5.97117C12.0847 6.13027 12.0847 6.38821 12.2423 6.5473C12.3999 6.7064 12.6553 6.7064 12.8129 6.5473L15.3808 3.95469ZM0.283878 3.37856C0.126295 3.53765 0.126295 3.7956 0.283878 3.95469L2.85179 6.5473C3.00937 6.7064 3.26489 6.7064 3.42247 6.5473C3.58005 6.38821 3.58005 6.13027 3.42247 5.97117L1.13987 3.66663L3.42247 1.36208C3.58005 1.20299 3.58005 0.945043 3.42247 0.785948C3.26489 0.626852 3.00937 0.626852 2.85179 0.785948L0.283878 3.37856ZM15.0955 3.25923L0.569186 3.25924V4.07401H15.0955V3.25923Z" fill="white"/>
</g>
<defs>
<clipPath id="clip0_16_54">
<rect width="6.66667" height="16" fill="white" transform="matrix(0 1 -1 0 16.166 0.666626)"/>
</clipPath>
</defs>
</svg>
