<svg width="7" height="16" viewBox="0 0 7 16" fill="none" xmlns="http://www.w3.org/2000/svg">
<path d="M3.95408 0.784811C3.79499 0.627231 3.53704 0.627231 3.37795 0.784811L0.785337 3.35272C0.626241 3.5103 0.626242 3.76579 0.785337 3.92337C0.944432 4.08095 1.20238 4.08095 1.36147 3.92337L3.66602 1.64078L5.97056 3.92337C6.12966 4.08095 6.3876 4.08095 6.54669 3.92337C6.70579 3.76579 6.70579 3.5103 6.54669 3.35272L3.95408 0.784811ZM3.37795 15.8818C3.53704 16.0394 3.79499 16.0394 3.95408 15.8818L6.54669 13.3139C6.70579 13.1563 6.70579 12.9008 6.54669 12.7432C6.3876 12.5856 6.12966 12.5856 5.97056 12.7432L3.66602 15.0258L1.36147 12.7432C1.20238 12.5856 0.944433 12.5856 0.785338 12.7432C0.626242 12.9008 0.626242 13.1563 0.785338 13.3139L3.37795 15.8818ZM3.25862 1.07013L3.25863 15.5965H4.0734V1.07013H3.25862Z" fill="white"/>
</svg>
