<svg width="56" height="59" viewBox="0 0 56 59" fill="none" xmlns="http://www.w3.org/2000/svg">
<path fill-rule="evenodd" clip-rule="evenodd" d="M15 16C15 16 25.7417 5.69729 28.7703 13.406C29.6947 10.4849 27.7777 5.99052 23.9495 7.20294C17.5578 10.3214 15.1418 15.515 15 16Z" fill="#262626"/>
<path fill-rule="evenodd" clip-rule="evenodd" d="M7 32.6739C7 32.6739 14.4581 38.376 26.4696 35.0446C38.6663 30.9492 41.7387 25.2583 43 21C42.242 28.2189 33.0945 39.1737 19.6365 41.9208C16.4253 42.2691 15.4243 41.3871 14.7531 40.8478C14.082 40.3085 7 32.6963 7 32.6963V32.6739Z" fill="#262626"/>
<path fill-rule="evenodd" clip-rule="evenodd" d="M24 7C24 7 19.1714 9.65458 14.9442 8.96934C6.98234 13.2017 0.240573 23.7279 0 28.5476C0 30.8106 0.246301 30.2175 1.39189 30.8106C3.2821 31.4382 6.30072 33.0563 14.463 41.6304C16.1814 43.3003 18.9365 43.1046 19.7613 42.7821C5.04057 44.5729 14.801 10.5414 24 7Z" fill="#262626"/>
<path fill-rule="evenodd" clip-rule="evenodd" d="M17 51.1556C17 51.1556 22.1558 57.1579 38 48C32.2026 51.5598 30.1544 54.7379 30.1544 54.7379C30.1544 54.7379 27.8002 58.0507 25.9815 58.6683C24.1628 59.286 23.1564 59.4432 20.1665 55.4397C17.1766 51.4363 17 51.1556 17 51.1556Z" fill="#262626"/>
<path fill-rule="evenodd" clip-rule="evenodd" d="M22.9777 44C22.9777 44 19.0096 44.9951 16 50.1129C17.5032 53.235 19.7229 55.9407 22.4705 58C18.5693 53.0585 20.6035 45.4898 23 44H22.9777Z" fill="#262626"/>
<path fill-rule="evenodd" clip-rule="evenodd" d="M26 23C26 23 33.1239 11.2101 43.339 8.11001C53.5542 5.00989 46.8254 4 46.8254 4L38.1094 6.48949C36.7819 6.62832 35.5284 7.17551 34.5184 8.05717C29.7246 11.674 26 23 26 23Z" fill="#262626"/>
<path fill-rule="evenodd" clip-rule="evenodd" d="M35.5006 7C35.5006 7 31.329 8.37894 25 23.8022C25.5959 30.7549 27.944 32.7364 29.0524 37.7075C30.5066 43.4666 32.4195 55.7033 25.4768 59C27.4374 58.7277 29.9881 55.3035 33.3194 52.3892C35.3828 50.4427 37.6182 48.6765 40 47.111C39.7567 41.9238 38.3319 36.8539 35.8284 32.2671C35.0775 31.0156 23.3135 16.1775 35.4887 7H35.5006Z" fill="#262626"/>
<path fill-rule="evenodd" clip-rule="evenodd" d="M40.3274 32C42.0515 33.7594 44.2024 35.0816 46.5881 35.8486C48.9738 36.6157 51.5202 36.8038 54 36.3961C52.6847 37.4097 43.2008 40.5049 40 38.1144C41.5637 35.1277 40.3331 32.8781 40.3274 32Z" fill="#262626"/>
<path fill-rule="evenodd" clip-rule="evenodd" d="M36 6.62878C36 6.62878 39.7906 4.88589 42.6172 9.53359C45.1305 14.4776 45.3256 26.1143 39.217 32.1911C39.4712 34.178 40.441 37.2513 39.2879 39C39.7665 37.9744 40.3896 37.02 41.1388 36.1649C45.367 31.7089 54.4265 27.0206 55.9226 14.588C56.5376 6.60554 53.3443 1.39431 51.3574 0C47.5964 2.85833 44.1547 4.51989 38.1762 5.87353C37.4255 6.04848 36.696 6.30166 36 6.62878Z" fill="#262626"/>
</svg>
