<svg width="220" height="49" viewBox="0 0 220 49" fill="none" xmlns="http://www.w3.org/2000/svg">
<g clip-path="url(#clip0_6_2)">
<path fill-rule="evenodd" clip-rule="evenodd" d="M44 27.3821C45.7636 26.6123 47.3518 25.4896 48.6674 24.0829C49.9829 22.6761 50.9982 21.0149 51.651 19.201C53.7393 13.1228 52.7801 21.5615 52.7801 21.5615C52.7801 21.5615 50.0263 28.8177 46.6254 30.9987C44.5233 31.0769 44.0321 27.5202 44 27.3821Z" fill="white"/>
<path fill-rule="evenodd" clip-rule="evenodd" d="M44 27.3821C45.7636 26.6123 47.3518 25.4896 48.6674 24.0829C49.9829 22.6761 50.9982 21.0149 51.651 19.201C53.7393 13.1228 52.7801 21.5615 52.7801 21.5615C52.7801 21.5615 50.0263 28.8177 46.6254 30.9987C44.5233 31.0769 44.0321 27.5202 44 27.3821Z" fill="#151C15"/>
<path fill-rule="evenodd" clip-rule="evenodd" d="M46.4925 20C43.4424 21.8087 40.8645 24.4292 39 27.6161C39.0394 28.8347 42.7441 29.187 45.4372 31.9335C45.7305 32.2334 46.1903 31.4576 46.8647 30.8292C47.5391 30.2009 45.5028 32.5857 44.9204 30.6769C44.338 28.768 44.0139 24.1175 46.4925 20Z" fill="white"/>
<path fill-rule="evenodd" clip-rule="evenodd" d="M46.4925 20C43.4424 21.8087 40.8645 24.4292 39 27.6161C39.0394 28.8347 42.7441 29.187 45.4372 31.9335C45.7305 32.2334 46.1903 31.4576 46.8647 30.8292C47.5391 30.2009 45.5028 32.5857 44.9204 30.6769C44.338 28.768 44.0139 24.1175 46.4925 20Z" fill="#151C15"/>
<path fill-rule="evenodd" clip-rule="evenodd" d="M55 31C55 31 63.9399 26.5207 63.9399 22.0011C64.1078 21.9115 64.0681 27.5509 61.8453 29.3023C59.5018 29.572 57.2016 30.1425 55 31Z" fill="white"/>
<path fill-rule="evenodd" clip-rule="evenodd" d="M55 31C55 31 63.9399 26.5207 63.9399 22.0011C64.1078 21.9115 64.0681 27.5509 61.8453 29.3023C59.5018 29.572 57.2016 30.1425 55 31Z" fill="#151C15"/>
<path fill-rule="evenodd" clip-rule="evenodd" d="M55 17.9856C55 17.9856 59.8559 10.4299 57.2118 6C57.0114 6.50471 56.7224 6.97322 56.3573 7.38554C56.5181 8.13823 59.323 8.23413 55.0453 17.324C54.9296 17.6356 55.1307 17.674 55 18V17.9856Z" fill="white"/>
<path fill-rule="evenodd" clip-rule="evenodd" d="M55 17.9856C55 17.9856 59.8559 10.4299 57.2118 6C57.0114 6.50471 56.7224 6.97322 56.3573 7.38554C56.5181 8.13823 59.323 8.23413 55.0453 17.324C54.9296 17.6356 55.1307 17.674 55 18V17.9856Z" fill="#151C15"/>
<path fill-rule="evenodd" clip-rule="evenodd" d="M51.2512 12.7935C51.2512 12.7935 49.5605 23.6795 54.9517 32C56.2642 30.7889 60.5526 29.1849 62.0382 29.3282C62.2752 29.4391 62.7583 28.5886 62.9725 28.168C63.1867 27.7473 62.1203 29.7489 60.8124 28.168C59.5044 26.5871 54.9153 16.4915 56.3963 8C54.1497 10.8336 52.4361 12.0678 51.2512 12.7889V12.7935Z" fill="white"/>
<path fill-rule="evenodd" clip-rule="evenodd" d="M51.2512 12.7935C51.2512 12.7935 49.5605 23.6795 54.9517 32C56.2642 30.7889 60.5526 29.1849 62.0382 29.3282C62.2752 29.4391 62.7583 28.5886 62.9725 28.168C63.1867 27.7473 62.1203 29.7489 60.8124 28.168C59.5044 26.5871 54.9153 16.4915 56.3963 8C54.1497 10.8336 52.4361 12.0678 51.2512 12.7889V12.7935Z" fill="#151C15"/>
<path fill-rule="evenodd" clip-rule="evenodd" d="M69.9117 10.1309C69.9117 10.1309 71.8292 6.20759 74 9.00795C72.2025 9.57173 67.7178 13.814 66.2613 15.6948C64.8049 17.5755 69.9117 10.1494 69.9117 10.1494V10.1309Z" fill="white"/>
<path fill-rule="evenodd" clip-rule="evenodd" d="M69.9117 10.1309C69.9117 10.1309 71.8292 6.20759 74 9.00795C72.2025 9.57173 67.7178 13.814 66.2613 15.6948C64.8049 17.5755 69.9117 10.1494 69.9117 10.1494V10.1309Z" fill="#151C15"/>
<path fill-rule="evenodd" clip-rule="evenodd" d="M63 25C63.4125 25.5257 68.899 32.3739 78.8682 25.4571C79.6016 24.84 77.0348 28.1132 77.0348 28.1132C77.0348 28.1132 74.2847 31.903 72.4879 31.999C70.6912 32.095 63 25 63 25Z" fill="white"/>
<path fill-rule="evenodd" clip-rule="evenodd" d="M63 25C63.4125 25.5257 68.899 32.3739 78.8682 25.4571C79.6016 24.84 77.0348 28.1132 77.0348 28.1132C77.0348 28.1132 74.2847 31.903 72.4879 31.999C70.6912 32.095 63 25 63 25Z" fill="#151C15"/>
<path fill-rule="evenodd" clip-rule="evenodd" d="M70.9962 9C69.4561 10.5526 67.7426 11.9114 65.8915 13.0479C64.1853 15.5205 62.2614 20.4191 63.287 25.355C63.6999 26.7573 64.7753 27.2574 65.1337 27.6641C67.2729 29.1733 69.3244 30.8106 71.2775 32.5673C72.5299 33.5769 73.628 32.5252 74 32.3616C70.6286 33.0909 69.1222 25.7383 69.4625 17.68C69.8436 12.1364 70.556 10.0563 70.9871 9.00461L70.9962 9Z" fill="white"/>
<path fill-rule="evenodd" clip-rule="evenodd" d="M70.9962 9C69.4561 10.5526 67.7426 11.9114 65.8915 13.0479C64.1853 15.5205 62.2614 20.4191 63.287 25.355C63.6999 26.7573 64.7753 27.2574 65.1337 27.6641C67.2729 29.1733 69.3244 30.8106 71.2775 32.5673C72.5299 33.5769 73.628 32.5252 74 32.3616C70.6286 33.0909 69.1222 25.7383 69.4625 17.68C69.8436 12.1364 70.556 10.0563 70.9871 9.00461L70.9962 9Z" fill="#151C15"/>
<path fill-rule="evenodd" clip-rule="evenodd" d="M71 15.0186C71 15.0186 71.2231 12.5279 72.6767 11.2014C73.4443 10.8292 74.8208 11.0869 74.8208 11.0869L76 12.0412C76 12.0412 72.7239 13.7589 72.3208 20C72.4451 18.0914 71.416 15.4814 71.0343 14.99L71 15.0186Z" fill="white"/>
<path fill-rule="evenodd" clip-rule="evenodd" d="M71 15.0186C71 15.0186 71.2231 12.5279 72.6767 11.2014C73.4443 10.8292 74.8208 11.0869 74.8208 11.0869L76 12.0412C76 12.0412 72.7239 13.7589 72.3208 20C72.4451 18.0914 71.416 15.4814 71.0343 14.99L71 15.0186Z" fill="#151C15"/>
<path fill-rule="evenodd" clip-rule="evenodd" d="M71.0508 14.8528C71.194 15.0547 78.3012 21.8277 86 14C83.2272 20.9884 76.5915 22.3394 72.2708 19.8349C72.0433 18.2201 71.6167 16.6379 71 15.1221C71.0063 15.0278 71.0233 14.9345 71.0508 14.8438V14.8528Z" fill="white"/>
<path fill-rule="evenodd" clip-rule="evenodd" d="M71.0508 14.8528C71.194 15.0547 78.3012 21.8277 86 14C83.2272 20.9884 76.5915 22.3394 72.2708 19.8349C72.0433 18.2201 71.6167 16.6379 71 15.1221C71.0063 15.0278 71.0233 14.9345 71.0508 14.8438V14.8528Z" fill="#151C15"/>
<path fill-rule="evenodd" clip-rule="evenodd" d="M72.7438 10.9703C72.7438 10.9703 76.1486 10.8135 77.7008 17.6237C79.0544 24.1394 77.322 29.9232 74.1759 32C75.8206 31.2253 78.2875 28.141 80.1816 26.2352C81.5907 25.5366 84.0762 12.7335 78.7079 8C75.8991 9.68714 74.5178 10.3762 72.8639 10.7184C72.4019 10.9086 72.2865 11.1176 72 11.5834C72.3188 11.1746 72.559 10.9941 72.7623 10.9656L72.7438 10.9703Z" fill="white"/>
<path fill-rule="evenodd" clip-rule="evenodd" d="M72.7438 10.9703C72.7438 10.9703 76.1486 10.8135 77.7008 17.6237C79.0544 24.1394 77.322 29.9232 74.1759 32C75.8206 31.2253 78.2875 28.141 80.1816 26.2352C81.5907 25.5366 84.0762 12.7335 78.7079 8C75.8991 9.68714 74.5178 10.3762 72.8639 10.7184C72.4019 10.9086 72.2865 11.1176 72 11.5834C72.3188 11.1746 72.559 10.9941 72.7623 10.9656L72.7438 10.9703Z" fill="#151C15"/>
<path fill-rule="evenodd" clip-rule="evenodd" d="M102 10.8995C102 10.8995 105.104 16.1142 114 13.018C112.89 12.8652 111.007 11.7499 109.156 9C109.036 9.40734 106.339 13.4508 102 10.8995Z" fill="white"/>
<path fill-rule="evenodd" clip-rule="evenodd" d="M102 10.8995C102 10.8995 105.104 16.1142 114 13.018C112.89 12.8652 111.007 11.7499 109.156 9C109.036 9.40734 106.339 13.4508 102 10.8995Z" fill="#151C15"/>
<path fill-rule="evenodd" clip-rule="evenodd" d="M107 24.6436C110.046 27.1558 114.732 27.6751 117.995 24C118.17 26.632 113.831 32.2778 109.024 31.9894C109.537 28.3497 107.149 25.012 107 24.6569V24.6436Z" fill="white"/>
<path fill-rule="evenodd" clip-rule="evenodd" d="M107 24.6436C110.046 27.1558 114.732 27.6751 117.995 24C118.17 26.632 113.831 32.2778 109.024 31.9894C109.537 28.3497 107.149 25.012 107 24.6569V24.6436Z" fill="#151C15"/>
<path fill-rule="evenodd" clip-rule="evenodd" d="M109.391 9C109.391 9 113.392 15.5331 106 23.8388C107.456 27.1774 108.499 29.2382 108.807 32.9995C109.349 33.0716 116.814 25.0493 114.586 12.694C113.428 12.3386 109.992 9.71092 109.391 9Z" fill="white"/>
<path fill-rule="evenodd" clip-rule="evenodd" d="M109.391 9C109.391 9 113.392 15.5331 106 23.8388C107.456 27.1774 108.499 29.2382 108.807 32.9995C109.349 33.0716 116.814 25.0493 114.586 12.694C113.428 12.3386 109.992 9.71092 109.391 9Z" fill="#151C15"/>
<path fill-rule="evenodd" clip-rule="evenodd" d="M120 26.9756C120 26.9756 128.916 28.8978 130.997 23C131.088 24.7118 128.813 29.3749 127.489 29.9923C125.175 30.1747 120.212 27.0457 120 26.9756Z" fill="white"/>
<path fill-rule="evenodd" clip-rule="evenodd" d="M120 26.9756C120 26.9756 128.916 28.8978 130.997 23C131.088 24.7118 128.813 29.3749 127.489 29.9923C125.175 30.1747 120.212 27.0457 120 26.9756Z" fill="#151C15"/>
<path fill-rule="evenodd" clip-rule="evenodd" d="M119.335 12.8669C119.335 12.8669 115.881 21.2844 120.085 33C122.036 32.1109 125.351 30.763 127.171 30.9112C127.62 30.8729 127.962 29.8691 127.997 29.6445C128.034 29.4198 127.692 30.7248 126.811 30.2802C125.931 29.8357 120.863 19.0426 125.769 9C123.104 11.28 120.036 12.824 119.335 12.8669Z" fill="white"/>
<path fill-rule="evenodd" clip-rule="evenodd" d="M119.335 12.8669C119.335 12.8669 115.881 21.2844 120.085 33C122.036 32.1109 125.351 30.763 127.171 30.9112C127.62 30.8729 127.962 29.8691 127.997 29.6445C128.034 29.4198 127.692 30.7248 126.811 30.2802C125.931 29.8357 120.863 19.0426 125.769 9C123.104 11.28 120.036 12.824 119.335 12.8669Z" fill="#151C15"/>
<path fill-rule="evenodd" clip-rule="evenodd" d="M154 25.9393C160.327 29.818 166.082 28.4168 170 24C168.601 28.0725 166.358 31.3209 161.579 31.9803C159.155 32.2518 158.004 29.6289 157.594 29.2361C157.185 28.8435 154 25.9442 154 25.9442V25.9393Z" fill="white"/>
<path fill-rule="evenodd" clip-rule="evenodd" d="M154 25.9393C160.327 29.818 166.082 28.4168 170 24C168.601 28.0725 166.358 31.3209 161.579 31.9803C159.155 32.2518 158.004 29.6289 157.594 29.2361C157.185 28.8435 154 25.9442 154 25.9442V25.9393Z" fill="#151C15"/>
<path fill-rule="evenodd" clip-rule="evenodd" d="M155 13C155 13 160.666 11.2158 162.85 12.9158C163.441 13.5105 162.095 9.42628 162.095 9.42628C161.323 9.34981 160.557 9.20726 159.804 9C159.284 9.13152 158.154 10.8736 157.648 11.1737C157.142 11.4736 155 13 155 13Z" fill="white"/>
<path fill-rule="evenodd" clip-rule="evenodd" d="M155 13C155 13 160.666 11.2158 162.85 12.9158C163.441 13.5105 162.095 9.42628 162.095 9.42628C161.323 9.34981 160.557 9.20726 159.804 9C159.284 9.13152 158.154 10.8736 157.648 11.1737C157.142 11.4736 155 13 155 13Z" fill="#151C15"/>
<path fill-rule="evenodd" clip-rule="evenodd" d="M154.157 12.0731C154.157 12.0731 148.957 16.4471 150.189 24.9199C150.601 26.3431 152.814 27.2919 153.328 27.8755C153.842 28.4589 156.773 30.5606 158.296 32.4771C159.097 33.6678 162.625 32.5056 163 32.1213C161.963 32.6574 159.065 33.0132 157.985 30.9828C156.907 28.9523 154.643 17.7517 158.356 10C157.009 10.7951 155.607 11.488 154.162 12.0731H154.157Z" fill="white"/>
<path fill-rule="evenodd" clip-rule="evenodd" d="M154.157 12.0731C154.157 12.0731 148.957 16.4471 150.189 24.9199C150.601 26.3431 152.814 27.2919 153.328 27.8755C153.842 28.4589 156.773 30.5606 158.296 32.4771C159.097 33.6678 162.625 32.5056 163 32.1213C161.963 32.6574 159.065 33.0132 157.985 30.9828C156.907 28.9523 154.643 17.7517 158.356 10C157.009 10.7951 155.607 11.488 154.162 12.0731H154.157Z" fill="#151C15"/>
<path fill-rule="evenodd" clip-rule="evenodd" d="M162 20C162 20 157.867 24.2616 153 20.4972C154.079 22.1482 155.961 24.2367 157.302 23.9781C158.642 23.7196 160.571 23.0533 162 20Z" fill="white"/>
<path fill-rule="evenodd" clip-rule="evenodd" d="M162 20C162 20 157.867 24.2616 153 20.4972C154.079 22.1482 155.961 24.2367 157.302 23.9781C158.642 23.7196 160.571 23.0533 162 20Z" fill="#151C15"/>
<path fill-rule="evenodd" clip-rule="evenodd" d="M158.872 8.91406C158.872 8.91406 160.019 7.18584 161.025 9.43901C162.331 12.691 162.345 21.6853 157 23C160.269 22.6498 163.307 21.158 165.571 18.791C167.134 17.0256 169.714 10.4937 166.362 7C164.526 7.74421 162.572 8.16103 160.59 8.2311C159.448 8.2311 159.598 7.85949 158.872 8.90939V8.91406Z" fill="white"/>
<path fill-rule="evenodd" clip-rule="evenodd" d="M158.872 8.91406C158.872 8.91406 160.019 7.18584 161.025 9.43901C162.331 12.691 162.345 21.6853 157 23C160.269 22.6498 163.307 21.158 165.571 18.791C167.134 17.0256 169.714 10.4937 166.362 7C164.526 7.74421 162.572 8.16103 160.59 8.2311C159.448 8.2311 159.598 7.85949 158.872 8.90939V8.91406Z" fill="#151C15"/>
<path fill-rule="evenodd" clip-rule="evenodd" d="M181.046 30C180.29 29.5285 189.116 28.5344 191.858 22C192.261 25.1972 192.019 27.7036 188.248 29.8226C186.193 29.7759 181.671 29.9066 181.046 29.9953V30Z" fill="white"/>
<path fill-rule="evenodd" clip-rule="evenodd" d="M181.046 30C180.29 29.5285 189.116 28.5344 191.858 22C192.261 25.1972 192.019 27.7036 188.248 29.8226C186.193 29.7759 181.671 29.9066 181.046 29.9953V30Z" fill="#151C15"/>
<path fill-rule="evenodd" clip-rule="evenodd" d="M179.442 12.7073C179.442 12.7073 177.819 28.2927 180.793 33C183.091 32.3891 183.163 30.4806 187.343 30.4806C188.174 30.6132 188.692 29.6519 188.967 29.3061C189.24 28.9604 187.774 30.9636 186.596 28.913C184.841 25.598 184.305 14.0997 186.402 8C185.079 8.08524 179.699 12.3569 179.42 12.7073H179.442Z" fill="white"/>
<path fill-rule="evenodd" clip-rule="evenodd" d="M179.442 12.7073C179.442 12.7073 177.819 28.2927 180.793 33C183.091 32.3891 183.163 30.4806 187.343 30.4806C188.174 30.6132 188.692 29.6519 188.967 29.3061C189.24 28.9604 187.774 30.9636 186.596 28.913C184.841 25.598 184.305 14.0997 186.402 8C185.079 8.08524 179.699 12.3569 179.42 12.7073H179.442Z" fill="#151C15"/>
<path fill-rule="evenodd" clip-rule="evenodd" d="M168.867 33.1596C168.806 32.9336 163.009 18.34 182.223 16.0427C188.656 15.4919 188.464 20.4208 187.496 22.2285C187.094 19.8182 179.97 15.8167 174.201 19.1968C165.178 24.3375 168.895 30.9893 170.18 32.8489C171.798 34.9155 169.587 33.6727 168.867 33.1501V33.1596Z" fill="white"/>
<path fill-rule="evenodd" clip-rule="evenodd" d="M168.867 33.1596C168.806 32.9336 163.009 18.34 182.223 16.0427C188.656 15.4919 188.464 20.4208 187.496 22.2285C187.094 19.8182 179.97 15.8167 174.201 19.1968C165.178 24.3375 168.895 30.9893 170.18 32.8489C171.798 34.9155 169.587 33.6727 168.867 33.1501V33.1596Z" fill="#151C15"/>
<path fill-rule="evenodd" clip-rule="evenodd" d="M169.823 8.55676C169.823 8.55676 173.044 17.5251 169 26.8804C171.602 28.8578 173.451 30.574 173.929 31.7306C174.371 32.4628 175.061 31.6047 175.433 30.3315C175.804 29.0583 178.685 22.0022 175.562 11.2711C173.889 11.1871 170.526 9.42891 170.252 8.47285C169.628 7.54012 169.628 8.21635 169.809 8.56145L169.823 8.55676Z" fill="white"/>
<path fill-rule="evenodd" clip-rule="evenodd" d="M169.823 8.55676C169.823 8.55676 173.044 17.5251 169 26.8804C171.602 28.8578 173.451 30.574 173.929 31.7306C174.371 32.4628 175.061 31.6047 175.433 30.3315C175.804 29.0583 178.685 22.0022 175.562 11.2711C173.889 11.1871 170.526 9.42891 170.252 8.47285C169.628 7.54012 169.628 8.21635 169.809 8.56145L169.823 8.55676Z" fill="#151C15"/>
<path fill-rule="evenodd" clip-rule="evenodd" d="M200 6.48992C200 6.48992 211.349 3.94285 208.907 12C213.267 6.93857 209.83 2.3819 207.469 3.0689C205.068 4.40899 202.571 5.55276 200 6.48992Z" fill="white"/>
<path fill-rule="evenodd" clip-rule="evenodd" d="M200 6.48992C200 6.48992 211.349 3.94285 208.907 12C213.267 6.93857 209.83 2.3819 207.469 3.0689C205.068 4.40899 202.571 5.55276 200 6.48992Z" fill="#151C15"/>
<path fill-rule="evenodd" clip-rule="evenodd" d="M219 27.2646C219 27.2646 209.326 35.7778 196 26C196.744 27.5881 196.942 27.7126 198.187 28.793C198.738 29.261 203.563 33.0496 204.666 33.9806C205.938 35.041 207.238 35.3994 209.062 34.4486C210.669 33.3185 214.976 30.5255 215.687 30.1272C216.399 29.7289 218.986 27.2646 218.986 27.2646H219Z" fill="white"/>
<path fill-rule="evenodd" clip-rule="evenodd" d="M219 27.2646C219 27.2646 209.326 35.7778 196 26C196.744 27.5881 196.942 27.7126 198.187 28.793C198.738 29.261 203.563 33.0496 204.666 33.9806C205.938 35.041 207.238 35.3994 209.062 34.4486C210.669 33.3185 214.976 30.5255 215.687 30.1272C216.399 29.7289 218.986 27.2646 218.986 27.2646H219Z" fill="#151C15"/>
<path fill-rule="evenodd" clip-rule="evenodd" d="M197.317 6.85221C197.317 6.85221 189.711 15.502 191.191 22.4501C191.562 24.0477 192.915 25.0971 193.53 25.8344C197.951 29.3558 200.019 29.5921 203.855 33C195.62 21.8829 201.76 5.27351 207 3C204.86 4.026 202.643 4.86701 200.371 5.51457C198.413 5.76981 197.797 6.27556 197.317 6.84276V6.85221Z" fill="white"/>
<path fill-rule="evenodd" clip-rule="evenodd" d="M197.317 6.85221C197.317 6.85221 189.711 15.502 191.191 22.4501C191.562 24.0477 192.915 25.0971 193.53 25.8344C197.951 29.3558 200.019 29.5921 203.855 33C195.62 21.8829 201.76 5.27351 207 3C204.86 4.026 202.643 4.86701 200.371 5.51457C198.413 5.76981 197.797 6.27556 197.317 6.84276V6.85221Z" fill="#151C15"/>
<path fill-rule="evenodd" clip-rule="evenodd" d="M216.604 17C216.604 17 222.279 25.5786 208 34C210.734 32.7943 211.623 31.8982 213.96 30.6925C215.246 29.8632 216.486 29.2913 218.155 28.1427C220.473 26.5509 221.253 22.1567 216.604 17Z" fill="white"/>
<path fill-rule="evenodd" clip-rule="evenodd" d="M216.604 17C216.604 17 222.279 25.5786 208 34C210.734 32.7943 211.623 31.8982 213.96 30.6925C215.246 29.8632 216.486 29.2913 218.155 28.1427C220.473 26.5509 221.253 22.1567 216.604 17Z" fill="#151C15"/>
<path fill-rule="evenodd" clip-rule="evenodd" d="M12 14C12 14 20.4399 4.84204 22.8195 11.6942C23.5458 9.09773 22.0397 5.10268 19.0318 6.18039C14.0096 8.95233 12.1114 13.5689 12 14Z" fill="white"/>
<path fill-rule="evenodd" clip-rule="evenodd" d="M12 14C12 14 20.4399 4.84204 22.8195 11.6942C23.5458 9.09773 22.0397 5.10268 19.0318 6.18039C14.0096 8.95233 12.1114 13.5689 12 14Z" fill="#151C15"/>
<path fill-rule="evenodd" clip-rule="evenodd" d="M6 28.0061C6 28.0061 12.0079 32.8937 21.6839 30.0382C31.509 26.5278 33.984 21.65 35 18C34.3894 24.1876 27.0206 33.5774 16.1794 35.9322C13.5926 36.2307 12.7862 35.4747 12.2456 35.0124C11.705 34.5502 6 28.0254 6 28.0254V28.0061Z" fill="white"/>
<path fill-rule="evenodd" clip-rule="evenodd" d="M6 28.0061C6 28.0061 12.0079 32.8937 21.6839 30.0382C31.509 26.5278 33.984 21.65 35 18C34.3894 24.1876 27.0206 33.5774 16.1794 35.9322C13.5926 36.2307 12.7862 35.4747 12.2456 35.0124C11.705 34.5502 6 28.0254 6 28.0254V28.0061Z" fill="#151C15"/>
<path fill-rule="evenodd" clip-rule="evenodd" d="M19 6C19 6 15.1773 8.13841 11.8308 7.58641C5.52769 10.9958 0.190454 19.4752 0 23.3577C0 25.1808 0.194989 24.703 1.10191 25.1808C2.59834 25.6864 4.98808 26.9898 11.4499 33.8967C12.8103 35.2419 14.9915 35.0842 15.6444 34.8245C3.99046 36.2671 11.7174 8.85274 19 6Z" fill="white"/>
<path fill-rule="evenodd" clip-rule="evenodd" d="M19 6C19 6 15.1773 8.13841 11.8308 7.58641C5.52769 10.9958 0.190454 19.4752 0 23.3577C0 25.1808 0.194989 24.703 1.10191 25.1808C2.59834 25.6864 4.98808 26.9898 11.4499 33.8967C12.8103 35.2419 14.9915 35.0842 15.6444 34.8245C3.99046 36.2671 11.7174 8.85274 19 6Z" fill="#151C15"/>
<path fill-rule="evenodd" clip-rule="evenodd" d="M14 41.5818C14 41.5818 18.1738 46.4928 31 39C26.3069 41.9126 24.6488 44.5128 24.6488 44.5128C24.6488 44.5128 22.743 47.2233 21.2708 47.7286C19.7985 48.234 18.9838 48.3626 16.5634 45.087C14.143 41.8115 14 41.5818 14 41.5818Z" fill="white"/>
<path fill-rule="evenodd" clip-rule="evenodd" d="M14 41.5818C14 41.5818 18.1738 46.4928 31 39C26.3069 41.9126 24.6488 44.5128 24.6488 44.5128C24.6488 44.5128 22.743 47.2233 21.2708 47.7286C19.7985 48.234 18.9838 48.3626 16.5634 45.087C14.143 41.8115 14 41.5818 14 41.5818Z" fill="#151C15"/>
<path fill-rule="evenodd" clip-rule="evenodd" d="M18.9808 37C18.9808 37 15.5796 37.853 13 42.2397C14.2885 44.9158 16.1911 47.2349 18.5461 49C15.2022 44.7644 16.9458 38.277 19 37H18.9808Z" fill="white"/>
<path fill-rule="evenodd" clip-rule="evenodd" d="M18.9808 37C18.9808 37 15.5796 37.853 13 42.2397C14.2885 44.9158 16.1911 47.2349 18.5461 49C15.2022 44.7644 16.9458 38.277 19 37H18.9808Z" fill="#151C15"/>
<path fill-rule="evenodd" clip-rule="evenodd" d="M21 18C21 18 26.5753 8.69219 34.5697 6.24474C42.5642 3.79727 37.2982 3 37.2982 3L30.477 4.96539C29.438 5.07498 28.4571 5.50698 27.6666 6.20302C23.9149 9.05839 21 18 21 18Z" fill="white"/>
<path fill-rule="evenodd" clip-rule="evenodd" d="M21 18C21 18 26.5753 8.69219 34.5697 6.24474C42.5642 3.79727 37.2982 3 37.2982 3L30.477 4.96539C29.438 5.07498 28.4571 5.50698 27.6666 6.20302C23.9149 9.05839 21 18 21 18Z" fill="#151C15"/>
<path fill-rule="evenodd" clip-rule="evenodd" d="M28.4004 6C28.4004 6 25.0632 7.11376 20 19.571C20.4768 25.1866 22.3552 26.7871 23.242 30.8022C24.4053 35.4539 25.9357 45.3373 20.3814 48C21.95 47.7801 23.9905 45.0144 26.6555 42.6605C28.3062 41.0883 30.0945 39.6618 32 38.3974C31.8053 34.2077 30.6655 30.1127 28.6627 26.408C28.0619 25.3972 18.6508 13.4126 28.391 6H28.4004Z" fill="white"/>
<path fill-rule="evenodd" clip-rule="evenodd" d="M28.4004 6C28.4004 6 25.0632 7.11376 20 19.571C20.4768 25.1866 22.3552 26.7871 23.242 30.8022C24.4053 35.4539 25.9357 45.3373 20.3814 48C21.95 47.7801 23.9905 45.0144 26.6555 42.6605C28.3062 41.0883 30.0945 39.6618 32 38.3974C31.8053 34.2077 30.6655 30.1127 28.6627 26.408C28.0619 25.3972 18.6508 13.4126 28.391 6H28.4004Z" fill="#151C15"/>
<path fill-rule="evenodd" clip-rule="evenodd" d="M32.2572 27C33.6119 28.5081 35.3019 29.6413 37.1764 30.2988C39.0509 30.9563 41.0516 31.1175 43 30.7681C41.9666 31.6369 34.5149 34.2899 32 32.2409C33.2287 29.6808 32.2617 27.7527 32.2572 27Z" fill="white"/>
<path fill-rule="evenodd" clip-rule="evenodd" d="M32.2572 27C33.6119 28.5081 35.3019 29.6413 37.1764 30.2988C39.0509 30.9563 41.0516 31.1175 43 30.7681C41.9666 31.6369 34.5149 34.2899 32 32.2409C33.2287 29.6808 32.2617 27.7527 32.2572 27Z" fill="#151C15"/>
<path fill-rule="evenodd" clip-rule="evenodd" d="M29 5.43901C29 5.43901 32.0325 4.00894 34.2938 7.82244C36.3043 11.879 36.4605 21.4271 31.5736 26.4132C31.777 28.0435 32.5528 30.5652 31.6303 32C32.0132 31.1585 32.5117 30.3754 33.1111 29.6738C36.4936 26.0176 43.7412 22.1707 44.9381 11.9696C45.4301 5.41994 42.8755 1.14405 41.2859 0C38.2772 2.3453 35.5238 3.70862 30.741 4.81931C30.1404 4.96285 29.5567 5.1706 29 5.43901Z" fill="white"/>
<path fill-rule="evenodd" clip-rule="evenodd" d="M29 5.43901C29 5.43901 32.0325 4.00894 34.2938 7.82244C36.3043 11.879 36.4605 21.4271 31.5736 26.4132C31.777 28.0435 32.5528 30.5652 31.6303 32C32.0132 31.1585 32.5117 30.3754 33.1111 29.6738C36.4936 26.0176 43.7412 22.1707 44.9381 11.9696C45.4301 5.41994 42.8755 1.14405 41.2859 0C38.2772 2.3453 35.5238 3.70862 30.741 4.81931C30.1404 4.96285 29.5567 5.1706 29 5.43901Z" fill="#151C15"/>
<path fill-rule="evenodd" clip-rule="evenodd" d="M141.726 9.72472C141.726 9.72472 143.29 8.91185 144.944 8.00181C145.606 8.03272 148.143 7.55999 149 12C148.153 9.23876 143.245 9.91912 139 10.5377C140.65 10.0959 141.726 9.72472 141.726 9.72472Z" fill="white"/>
<path fill-rule="evenodd" clip-rule="evenodd" d="M141.726 9.72472C141.726 9.72472 143.29 8.91185 144.944 8.00181C145.606 8.03272 148.143 7.55999 149 12C148.153 9.23876 143.245 9.91912 139 10.5377C140.65 10.0959 141.726 9.72472 141.726 9.72472Z" fill="#151C15"/>
<path fill-rule="evenodd" clip-rule="evenodd" d="M131 42.0315C131 42.0315 137.907 48.811 145.957 41.5063C154.007 34.2017 143.577 45.1249 143.247 45.7658C142.917 46.4066 140.03 48.2135 138.73 48.6568C138.272 48.8883 137.771 49.0056 137.264 48.9998C136.758 48.994 136.26 48.8651 135.807 48.6231C134.33 47.9292 131.141 42.3061 131.023 42.017L131 42.0315Z" fill="white"/>
<path fill-rule="evenodd" clip-rule="evenodd" d="M131 42.0315C131 42.0315 137.907 48.811 145.957 41.5063C154.007 34.2017 143.577 45.1249 143.247 45.7658C142.917 46.4066 140.03 48.2135 138.73 48.6568C138.272 48.8883 137.771 49.0056 137.264 48.9998C136.758 48.994 136.26 48.8651 135.807 48.6231C134.33 47.9292 131.141 42.3061 131.023 42.017L131 42.0315Z" fill="#151C15"/>
<path fill-rule="evenodd" clip-rule="evenodd" d="M133 26.7163C133 26.7163 138.001 31.6125 144.758 21C145.006 21.642 145.438 22.1933 146 22.5823C146 22.5823 141.841 29.7698 137.815 32.5773C135.959 34.0631 134.913 31.1736 134.822 30.9324C134.732 30.6912 133 26.7163 133 26.7163Z" fill="white"/>
<path fill-rule="evenodd" clip-rule="evenodd" d="M133 26.7163C133 26.7163 138.001 31.6125 144.758 21C145.006 21.642 145.438 22.1933 146 22.5823C146 22.5823 141.841 29.7698 137.815 32.5773C135.959 34.0631 134.913 31.1736 134.822 30.9324C134.732 30.6912 133 26.7163 133 26.7163Z" fill="#151C15"/>
<path fill-rule="evenodd" clip-rule="evenodd" d="M134.426 36.0096C134.426 36.0096 129.725 45.6433 135 49C132.183 47.7868 129.378 43.5765 129.006 40.848C128.808 38.7717 133.925 36 134.418 36L134.426 36.0096Z" fill="white"/>
<path fill-rule="evenodd" clip-rule="evenodd" d="M134.426 36.0096C134.426 36.0096 129.725 45.6433 135 49C132.183 47.7868 129.378 43.5765 129.006 40.848C128.808 38.7717 133.925 36 134.418 36L134.426 36.0096Z" fill="#151C15"/>
<path fill-rule="evenodd" clip-rule="evenodd" d="M137.844 10.4226C137.844 10.4226 129.446 16.1004 128.005 24.0268C127.939 24.9676 128.507 24.8594 128.802 25.137C129.095 25.4145 131.645 26.52 135.134 31.0877C136.778 33.1998 138.508 31.0877 139.214 30.3115C137.441 31.5204 135.816 31.7227 135.574 29.1166C135.346 22.9543 138.347 12.2572 146 8C142.82 9.49124 140.659 10.3191 139.166 10.1451C138.937 10.0917 138.698 10.0889 138.467 10.1369C138.237 10.1848 138.019 10.2823 137.83 10.4226H137.844Z" fill="white"/>
<path fill-rule="evenodd" clip-rule="evenodd" d="M137.844 10.4226C137.844 10.4226 129.446 16.1004 128.005 24.0268C127.939 24.9676 128.507 24.8594 128.802 25.137C129.095 25.4145 131.645 26.52 135.134 31.0877C136.778 33.1998 138.508 31.0877 139.214 30.3115C137.441 31.5204 135.816 31.7227 135.574 29.1166C135.346 22.9543 138.347 12.2572 146 8C142.82 9.49124 140.659 10.3191 139.166 10.1451C138.937 10.0917 138.698 10.0889 138.467 10.1369C138.237 10.1848 138.019 10.2823 137.83 10.4226H137.844Z" fill="#151C15"/>
<path fill-rule="evenodd" clip-rule="evenodd" d="M147.144 13.32C147.428 12.8981 147.684 12.4572 147.913 12C148.344 12.4552 147.248 20.5028 143 25C143.371 23.2658 143.406 23.8848 143.453 23.5115C143.501 23.1383 146.907 20.5848 147.144 13.32Z" fill="white"/>
<path fill-rule="evenodd" clip-rule="evenodd" d="M147.144 13.32C147.428 12.8981 147.684 12.4572 147.913 12C148.344 12.4552 147.248 20.5028 143 25C143.371 23.2658 143.406 23.8848 143.453 23.5115C143.501 23.1383 146.907 20.5848 147.144 13.32Z" fill="#151C15"/>
<path fill-rule="evenodd" clip-rule="evenodd" d="M143.104 19.0378C143.104 19.0378 142.462 23.1216 145.465 34.2718C147.722 45.5684 140.744 47.8798 138 49C138.406 48.9007 140.087 48.7825 142.807 46.8352C146.726 43.9992 148.393 40.8654 150.498 40.1848C152.605 39.5041 152.066 31.9178 151.443 30.4384C149.295 23.6084 147.59 24.1473 147.193 17.9553C146.947 14.089 148.043 13.2287 148.236 13.0065C148.43 12.7844 143.945 18.2957 143.085 19.0378H143.104Z" fill="white"/>
<path fill-rule="evenodd" clip-rule="evenodd" d="M143.104 19.0378C143.104 19.0378 142.462 23.1216 145.465 34.2718C147.722 45.5684 140.744 47.8798 138 49C138.406 48.9007 140.087 48.7825 142.807 46.8352C146.726 43.9992 148.393 40.8654 150.498 40.1848C152.605 39.5041 152.066 31.9178 151.443 30.4384C149.295 23.6084 147.59 24.1473 147.193 17.9553C146.947 14.089 148.043 13.2287 148.236 13.0065C148.43 12.7844 143.945 18.2957 143.085 19.0378H143.104Z" fill="#151C15"/>
<path fill-rule="evenodd" clip-rule="evenodd" d="M90.2646 8.11816C90.2646 8.11816 92.3106 4.38695 99 6.82886C92.7593 7.5712 89.7231 10.9997 86.1447 14.5649C85.2104 16.6551 89.1061 10.5357 89.1061 10.5357L90.2646 8.09377V8.11816Z" fill="white"/>
<path fill-rule="evenodd" clip-rule="evenodd" d="M90.2646 8.11816C90.2646 8.11816 92.3106 4.38695 99 6.82886C92.7593 7.5712 89.7231 10.9997 86.1447 14.5649C85.2104 16.6551 89.1061 10.5357 89.1061 10.5357L90.2646 8.09377V8.11816Z" fill="#151C15"/>
<path fill-rule="evenodd" clip-rule="evenodd" d="M90.8859 7C90.8859 7 86.8397 9.26899 89.4444 18.0691C92.395 28.9432 97.071 33.0769 96.9992 42.0149C95.5577 42.5525 92.0872 44.7834 88.1036 47.9514C86.3349 49.1311 84.5037 49.0836 84.0379 48.9028C83.5712 48.722 87.5456 49.4403 88.7089 45.573C89.8722 41.7058 89.3869 34.2994 87.0603 28.163C84.7345 22.0268 84.1005 17.4888 84.5714 15.0913C84.9992 13.4645 85.5707 14.2446 88.3099 10.0871C89.5983 7.66595 90.3524 7.15222 90.9053 7.01903L90.8859 7Z" fill="white"/>
<path fill-rule="evenodd" clip-rule="evenodd" d="M90.8859 7C90.8859 7 86.8397 9.26899 89.4444 18.0691C92.395 28.9432 97.071 33.0769 96.9992 42.0149C95.5577 42.5525 92.0872 44.7834 88.1036 47.9514C86.3349 49.1311 84.5037 49.0836 84.0379 48.9028C83.5712 48.722 87.5456 49.4403 88.7089 45.573C89.8722 41.7058 89.3869 34.2994 87.0603 28.163C84.7345 22.0268 84.1005 17.4888 84.5714 15.0913C84.9992 13.4645 85.5707 14.2446 88.3099 10.0871C89.5983 7.66595 90.3524 7.15222 90.9053 7.01903L90.8859 7Z" fill="#151C15"/>
<path fill-rule="evenodd" clip-rule="evenodd" d="M102.435 9C104.076 9.65528 101.909 16.3397 98.9603 15.1283C94.3902 13.2426 91.5607 18.249 91.8623 24C91.0622 21.6006 89.8377 15.543 93.4623 12.0312C93.7429 11.7323 94.1071 11.5319 94.5043 11.4583C94.9007 11.3847 95.3108 11.4417 95.6742 11.621C95.8069 11.7058 102.435 9 102.435 9Z" fill="white"/>
<path fill-rule="evenodd" clip-rule="evenodd" d="M102.435 9C104.076 9.65528 101.909 16.3397 98.9603 15.1283C94.3902 13.2426 91.5607 18.249 91.8623 24C91.0622 21.6006 89.8377 15.543 93.4623 12.0312C93.7429 11.7323 94.1071 11.5319 94.5043 11.4583C94.9007 11.3847 95.3108 11.4417 95.6742 11.621C95.8069 11.7058 102.435 9 102.435 9Z" fill="#151C15"/>
<path fill-rule="evenodd" clip-rule="evenodd" d="M86 30.4195C86 30.4195 89.6871 32.2938 91.0402 33.6259C92.3934 34.9579 94.4726 32.3271 94.6275 32.037C94.7817 31.7467 98.5958 26.2902 99 26C96.8705 27.8791 94.3775 33.1359 87.2349 30.7573C86.8651 30.5155 86.4353 30.3946 86 30.41V30.4195Z" fill="white"/>
<path fill-rule="evenodd" clip-rule="evenodd" d="M86 30.4195C86 30.4195 89.6871 32.2938 91.0402 33.6259C92.3934 34.9579 94.4726 32.3271 94.6275 32.037C94.7817 31.7467 98.5958 26.2902 99 26C96.8705 27.8791 94.3775 33.1359 87.2349 30.7573C86.8651 30.5155 86.4353 30.3946 86 30.41V30.4195Z" fill="#151C15"/>
<path fill-rule="evenodd" clip-rule="evenodd" d="M94.697 12.4707C94.697 12.4707 97.9758 12.3911 98.3649 20.0539C98.555 27.2764 95.1449 32.171 94.2944 33C95.9 31.9743 97.6186 29.5668 99.2242 28.0679C100.378 27.1592 101.485 26.2506 101.884 26.3302C102.553 25.9743 107.723 15.3091 103.092 9C101.282 10.0257 98.1882 11.5293 95.0725 12.0445C94.8394 12.0789 94.6182 12.1745 94.4304 12.322C94.2427 12.4695 94.0947 12.6642 94 12.8876C94.1774 12.6593 94.4344 12.5115 94.7153 12.4754L94.697 12.4707Z" fill="white"/>
<path fill-rule="evenodd" clip-rule="evenodd" d="M94.697 12.4707C94.697 12.4707 97.9758 12.3911 98.3649 20.0539C98.555 27.2764 95.1449 32.171 94.2944 33C95.9 31.9743 97.6186 29.5668 99.2242 28.0679C100.378 27.1592 101.485 26.2506 101.884 26.3302C102.553 25.9743 107.723 15.3091 103.092 9C101.282 10.0257 98.1882 11.5293 95.0725 12.0445C94.8394 12.0789 94.6182 12.1745 94.4304 12.322C94.2427 12.4695 94.0947 12.6642 94 12.8876C94.1774 12.6593 94.4344 12.5115 94.7153 12.4754L94.697 12.4707Z" fill="#151C15"/>
<path fill-rule="evenodd" clip-rule="evenodd" d="M78 35C78 35 83.2589 28.8434 89 32.6568C87.3221 30.5127 84.5729 29.0833 83.6357 29.0067C82.532 28.8842 79.7375 30.4208 78 35Z" fill="white"/>
<path fill-rule="evenodd" clip-rule="evenodd" d="M78 35C78 35 83.2589 28.8434 89 32.6568C87.3221 30.5127 84.5729 29.0833 83.6357 29.0067C82.532 28.8842 79.7375 30.4208 78 35Z" fill="#151C15"/>
</g>
<defs>
<clipPath id="clip0_6_2">
<rect width="220" height="49" fill="white"/>
</clipPath>
</defs>
</svg>
