<svg width="27" height="28" viewBox="0 0 27 28" fill="none" xmlns="http://www.w3.org/2000/svg">
<path fill-rule="evenodd" clip-rule="evenodd" d="M7.14728 7.43912C7.14728 7.43912 12.314 2.45513 13.7708 6.18426C14.2154 4.77117 13.2934 2.59699 11.452 3.1835C8.37759 4.69206 7.21548 7.20452 7.14728 7.43912Z" fill="#262626"/>
<path fill-rule="evenodd" clip-rule="evenodd" d="M3.42908 15.6967C3.42908 15.6967 6.94542 18.4655 12.6087 16.8479C18.3592 14.8592 19.8078 12.0957 20.4025 10.028C20.0451 13.5334 15.7322 18.8529 9.38695 20.1869C7.87293 20.356 7.40099 19.9277 7.08455 19.6658C6.7681 19.404 3.42908 15.7076 3.42908 15.7076V15.6967Z" fill="#262626"/>
<path fill-rule="evenodd" clip-rule="evenodd" d="M11.4302 3.20532C11.4302 3.20532 9.13049 4.46291 7.11725 4.13829C3.32539 6.14334 0.114574 11.1301 0 13.4134C0 14.4854 0.117302 14.2045 0.662895 14.4854C1.56312 14.7828 3.00076 15.5494 6.8881 19.6113C7.70649 20.4024 9.01864 20.3096 9.41147 20.1569C2.40061 21.0053 7.04906 4.88302 11.4302 3.20532Z" fill="#262626"/>
<path fill-rule="evenodd" clip-rule="evenodd" d="M8.05841 24.1889C8.05841 24.1889 10.4481 27.1051 17.7918 22.6558C15.1047 24.3853 14.1554 25.9293 14.1554 25.9293C14.1554 25.9293 13.0642 27.5388 12.2213 27.8389C11.3783 28.139 10.9119 28.2153 9.52605 26.2703C8.14025 24.3253 8.05841 24.1889 8.05841 24.1889Z" fill="#262626"/>
<path fill-rule="evenodd" clip-rule="evenodd" d="M11.1602 21.0735C11.1602 21.0735 9.21785 21.5509 7.74475 24.006C8.48054 25.5038 9.56704 26.8018 10.9119 27.7897C9.00234 25.4191 9.99805 21.7882 11.1711 21.0735H11.1602Z" fill="#262626"/>
<path fill-rule="evenodd" clip-rule="evenodd" d="M12.4367 10.519C12.4367 10.519 15.7812 5.04122 20.5769 3.60086C25.3727 2.16049 22.2137 1.69128 22.2137 1.69128L18.1218 2.84794C17.4985 2.91244 16.9101 3.16668 16.4359 3.57631C14.1853 5.25673 12.4367 10.519 12.4367 10.519Z" fill="#262626"/>
<path fill-rule="evenodd" clip-rule="evenodd" d="M16.6242 3.42358C16.6242 3.42358 14.7146 4.07284 11.8175 11.3347C12.0903 14.6082 13.1651 15.5412 13.6725 17.8818C14.3381 20.5934 15.2138 26.3548 12.0357 27.907C12.9332 27.7788 14.1008 26.1666 15.6257 24.7944C16.5702 23.878 17.5935 23.0464 18.6838 22.3093C18.5724 19.867 17.9202 17.4798 16.7742 15.3202C16.4305 14.731 11.0455 7.74468 16.6187 3.42358H16.6242Z" fill="#262626"/>
<path fill-rule="evenodd" clip-rule="evenodd" d="M18.7984 15.2466C19.6316 16.132 20.671 16.7974 21.8238 17.1835C22.9767 17.5695 24.2072 17.6641 25.4055 17.459C24.7699 17.9691 20.187 19.5268 18.6402 18.3237C19.3958 16.8206 18.8011 15.6885 18.7984 15.2466Z" fill="#262626"/>
<path fill-rule="evenodd" clip-rule="evenodd" d="M17.118 3.1126C17.118 3.1126 18.8667 2.29422 20.1706 4.47659C21.33 6.79808 21.42 12.2622 18.6021 15.1156C18.7194 16.0486 19.1667 17.4917 18.6348 18.3128C18.8556 17.8312 19.143 17.3831 19.4886 16.9816C21.4391 14.8892 25.6184 12.6878 26.3085 6.84991C26.5923 3.10169 25.1192 0.654711 24.2026 0C22.4676 1.34216 20.8799 2.12235 18.1219 2.75797C17.7756 2.84012 17.4391 2.959 17.118 3.1126Z" fill="#262626"/>
</svg>
