<svg width="42" height="42" viewBox="0 0 42 42" fill="none" xmlns="http://www.w3.org/2000/svg">
<g id="Frame 58">
<g id="Group 4">
<path id="Union" fill-rule="evenodd" clip-rule="evenodd" d="M37.9687 21.5C39.2144 20.4006 40 18.792 40 17C40 13.994 37.7894 11.5043 34.9053 11.0678C34.9675 10.7213 35 10.3645 35 10C35 6.68629 32.3137 4 29 4C27.8131 4 26.7067 4.34462 25.7754 4.93927C25.1027 2.66189 22.9954 1 20.5 1C18.0046 1 15.8973 2.66189 15.2246 4.93927C14.2933 4.34462 13.1869 4 12 4C8.68629 4 6 6.68629 6 10C6 10.3645 6.03249 10.7213 6.09474 11.0678C3.21055 11.5043 1 13.994 1 17C1 18.792 1.78563 20.4006 3.03126 21.5C1.78563 22.5994 1 24.208 1 26C1 29.006 3.21056 31.4957 6.09474 31.9322C6.0325 32.2787 6 32.6355 6 33C6 36.3137 8.68629 39 12 39C13.235 39 14.3828 38.6269 15.3369 37.9872C16.157 40.3243 18.3828 42 21 42C23.4422 42 25.5437 40.5408 26.4801 38.4468C27.2463 38.8018 28.1 39 29 39C32.3137 39 35 36.3137 35 33C35 32.6355 34.9675 32.2787 34.9053 31.9322C37.7894 31.4957 40 29.006 40 26C40 24.208 39.2144 22.5994 37.9687 21.5Z" fill="#29B6F6"/>
<g id="Group 3">
<path id="Vector" d="M29.5286 13.8571L26.3177 30.2509C26.3177 30.2509 26.1797 31 25.2506 31C24.7569 31 24.5023 30.7651 24.5023 30.7651L17.5474 24.994L14.1446 23.2789L9.77743 22.1174C9.77743 22.1174 9 21.8929 9 21.25C9 20.7143 9.79971 20.4589 9.79971 20.4589L28.0706 13.2006C28.0706 13.2006 28.6286 12.9991 29.0357 13C29.286 13 29.5714 13.1071 29.5714 13.4286C29.5714 13.6429 29.5286 13.8571 29.5286 13.8571Z" fill="white"/>
<path id="Vector_2" d="M20.1428 27.147L17.2062 30.039C17.2062 30.039 17.0785 30.1376 16.9079 30.1419C16.8488 30.1436 16.7854 30.1342 16.7202 30.105L17.5465 24.9922L20.1428 27.147Z" fill="#B0BEC5"/>
<path id="Vector_3" d="M26.0548 16.5966C25.9099 16.408 25.6425 16.3738 25.4539 16.5169L14.1431 23.2858C14.1431 23.2858 15.9482 28.336 16.2234 29.2103C16.4994 30.0855 16.7205 30.106 16.7205 30.106L17.5468 24.9932L25.9742 17.1966C26.1628 17.0535 26.1979 16.7852 26.0548 16.5966Z" fill="#CFD8DC"/>
</g>
</g>
</g>
</svg>
