<svg width="42" height="42" viewBox="0 0 42 42" fill="none" xmlns="http://www.w3.org/2000/svg">
<g id="Frame 60">
<g id="Group 92">
<path id="Union" fill-rule="evenodd" clip-rule="evenodd" d="M37.9687 21.5C39.2144 20.4006 40 18.792 40 17C40 13.994 37.7894 11.5043 34.9053 11.0678C34.9675 10.7213 35 10.3645 35 10C35 6.68629 32.3137 4 29 4C27.8131 4 26.7067 4.34462 25.7754 4.93927C25.1027 2.66189 22.9954 1 20.5 1C18.0046 1 15.8973 2.66189 15.2246 4.93927C14.2933 4.34462 13.1869 4 12 4C8.68629 4 6 6.68629 6 10C6 10.3645 6.03249 10.7213 6.09474 11.0678C3.21055 11.5043 1 13.994 1 17C1 18.792 1.78563 20.4006 3.03126 21.5C1.78563 22.5994 1 24.208 1 26C1 29.006 3.21056 31.4957 6.09474 31.9322C6.0325 32.2787 6 32.6355 6 33C6 36.3137 8.68629 39 12 39C13.235 39 14.3828 38.6269 15.3369 37.9872C16.157 40.3243 18.3828 42 21 42C23.4422 42 25.5437 40.5408 26.4801 38.4468C27.2463 38.8018 28.1 39 29 39C32.3137 39 35 36.3137 35 33C35 32.6355 34.9675 32.2787 34.9053 31.9322C37.7894 31.4957 40 29.006 40 26C40 24.208 39.2144 22.5994 37.9687 21.5Z" fill="#1976D2"/>
<path id="Vector" d="M29.9472 16.9022C29.9856 16.7713 30.0039 16.65 29.9989 16.5417C29.9864 16.2279 29.7789 16 29.2906 16H27.1089C26.5581 16 26.3039 16.3467 26.1556 16.6942C26.1556 16.6942 24.7956 19.6053 23.2282 21.525C22.7198 22.0805 22.4615 22.0667 22.1865 22.0667C22.039 22.0667 21.6665 21.8812 21.6665 21.3725V16.8788C21.6665 16.2773 21.5223 16 21.0565 16H17.1824C16.8432 16 16.6666 16.2773 16.6666 16.5555C16.6666 17.1336 17.4149 17.2723 17.4999 18.8921V22.032C17.4999 22.7947 17.3724 22.9333 17.0974 22.9333C16.3557 22.9333 14.8958 20.3333 13.9183 16.9256C13.7066 16.2548 13.495 16 12.9441 16H10.7417C10.1058 16 10 16.3241 10 16.6708C10 17.2957 10.5 20.6739 13.2291 24.5583C15.2083 27.375 17.8157 29 20.124 29C21.5223 29 21.6657 28.6299 21.6657 28.0519V25.4761C21.6665 24.7819 21.819 24.6667 22.264 24.6667C22.5815 24.6667 23.229 24.8833 24.479 26.4C25.9206 28.1489 26.1823 29 27.0089 29H29.1906C29.6972 29 29.9881 28.779 29.9997 28.35C30.0022 28.2408 29.9872 28.1186 29.9531 27.9825C29.7914 27.4833 29.0497 26.2631 28.1248 25.1C27.6123 24.4561 27.1064 23.8182 26.8739 23.4715C26.7181 23.2453 26.6589 23.0859 26.6664 22.9333C26.6739 22.773 26.7539 22.6205 26.8739 22.4073C26.8523 22.4073 29.6722 18.2897 29.9472 16.9022Z" fill="white"/>
</g>
</g>
</svg>
