<svg width="42" height="42" viewBox="0 0 42 42" fill="none" xmlns="http://www.w3.org/2000/svg">
<g id="Frame 59">
<g id="Group 91">
<path id="Union" fill-rule="evenodd" clip-rule="evenodd" d="M37.9687 21.5C39.2144 20.4006 40 18.792 40 17C40 13.994 37.7894 11.5043 34.9053 11.0678C34.9675 10.7213 35 10.3645 35 10C35 6.68629 32.3137 4 29 4C27.8131 4 26.7067 4.34462 25.7754 4.93927C25.1027 2.66189 22.9954 1 20.5 1C18.0046 1 15.8973 2.66189 15.2246 4.93927C14.2933 4.34462 13.1869 4 12 4C8.68629 4 6 6.68629 6 10C6 10.3645 6.03249 10.7213 6.09474 11.0678C3.21055 11.5043 1 13.994 1 17C1 18.792 1.78563 20.4006 3.03126 21.5C1.78563 22.5994 1 24.208 1 26C1 29.006 3.21056 31.4957 6.09474 31.9322C6.0325 32.2787 6 32.6355 6 33C6 36.3137 8.68629 39 12 39C13.235 39 14.3828 38.6269 15.3369 37.9872C16.157 40.3243 18.3828 42 21 42C23.4422 42 25.5437 40.5408 26.4801 38.4468C27.2463 38.8018 28.1 39 29 39C32.3137 39 35 36.3137 35 33C35 32.6355 34.9675 32.2787 34.9053 31.9322C37.7894 31.4957 40 29.006 40 26C40 24.208 39.2144 22.5994 37.9687 21.5Z" fill="#40C351"/>
<g id="Group 90">
<path id="Vector" d="M11.2365 30.5281C11.174 30.5281 11.1134 30.5036 11.0684 30.4583C11.0093 30.3985 10.9861 30.3113 11.0083 30.2306L12.2577 25.6881C11.4832 24.3181 11.0746 22.7625 11.0755 21.1832C11.0774 16.1192 15.2156 12 20.3006 12C22.7671 12.0009 25.0845 12.9574 26.8263 14.6932C28.568 16.4294 29.5266 18.7366 29.5257 21.1898C29.5238 26.2533 25.3852 30.373 20.3006 30.373C18.7909 30.3725 17.2972 30.0015 15.9717 29.2996L11.2966 30.5201C11.2767 30.5258 11.2569 30.5281 11.2365 30.5281Z" fill="white"/>
<path id="Vector_2" d="M25.585 15.9278C24.1742 14.5221 22.2989 13.7475 20.303 13.7471C16.1823 13.7471 12.831 17.0828 12.8291 21.1832C12.8286 22.5885 13.2235 23.9566 13.9715 25.1412L14.1495 25.4227L13.3944 28.1668L16.2221 27.4285L16.4953 27.5898C17.6419 28.2677 18.9571 28.6259 20.2978 28.6264H20.3006C24.4184 28.6264 27.7698 25.2902 27.7712 21.1893C27.7717 19.2023 26.9958 17.3336 25.585 15.9278Z" fill="#40C351"/>
<path id="Vector_3" fill-rule="evenodd" clip-rule="evenodd" d="M18.0536 17.4425C17.8855 17.0701 17.7085 17.0626 17.548 17.056C17.4169 17.0503 17.2673 17.0508 17.1177 17.0508C16.9681 17.0508 16.7247 17.1069 16.5188 17.3308C16.3128 17.5547 15.7324 18.0955 15.7324 19.1957C15.7324 20.296 16.5372 21.3595 16.6494 21.5085C16.7616 21.6575 18.2032 23.9877 20.486 24.8843C22.383 25.6292 22.7694 25.4811 23.1812 25.4439C23.5931 25.4067 24.5101 24.9032 24.6971 24.3809C24.8841 23.8585 24.8841 23.4112 24.8283 23.3178C24.7719 23.2245 24.6223 23.1688 24.3979 23.0566C24.1735 22.9444 23.069 22.4037 22.8631 22.3292C22.6572 22.2548 22.5076 22.2175 22.3575 22.4414C22.2079 22.6649 21.7775 23.1688 21.6464 23.3178C21.5153 23.4673 21.3841 23.4861 21.1597 23.3739C20.9353 23.2617 20.2119 23.026 19.3536 22.2642C18.6861 21.6716 18.2354 20.9395 18.1043 20.7156C17.9731 20.4921 18.0901 20.371 18.2027 20.2593C18.3036 20.1588 18.4271 19.9981 18.5398 19.8675C18.652 19.7369 18.6894 19.6436 18.7642 19.4946C18.839 19.3452 18.8016 19.2146 18.7453 19.1029C18.6899 18.9907 18.2534 17.8847 18.0536 17.4425Z" fill="white"/>
</g>
</g>
</g>
</svg>
